<?xml version="1.0" encoding="utf-8"?>
<!-- Generator: Adobe Illustrator 16.0.3, SVG Export Plug-In . SVG Version: 6.00 Build 0)  -->
<!DOCTYPE svg PUBLIC "-//W3C//DTD SVG 1.1//EN" "http://www.w3.org/Graphics/SVG/1.1/DTD/svg11.dtd">
<svg version="1.1" id="Layer_1" xmlns="http://www.w3.org/2000/svg" xmlns:xlink="http://www.w3.org/1999/xlink" x="0px" y="0px"
	 width="320px" height="56px" viewBox="0 0 320 56" enable-background="new 0 0 320 56" xml:space="preserve">
<title>She's Coding Projects</title>
<g>
	<defs>
		<rect id="SVGID_1_" width="320" height="56"/>
	</defs>
	<clipPath id="SVGID_2_">
		<use xlink:href="#SVGID_1_"  overflow="visible"/>
	</clipPath>
	<g id="custom_1" clip-path="url(#SVGID_2_)">
		<rect fill="#FFFFFF" width="320" height="56"/>
		<g enable-background="new    ">
			<path fill="#40E0D0" d="M57.685,33.186h0.462v1.396h-0.462V33.186z M63.774,24.534c-0.735,0-1.286,0.21-1.653,0.63
				c-0.368,0.42-0.551,1.015-0.551,1.785v4.158c0,0.98-0.289,1.726-0.867,2.236c-0.577,0.512-1.43,0.767-2.557,0.767v-0.924
				c1.281,0,1.921-0.676,1.921-2.026v-4.084c0-0.826,0.149-1.533,0.446-2.121c0.298-0.588,0.725-1.038,1.281-1.349
				s1.216-0.467,1.979-0.467c0.301,0,0.605,0.024,0.914,0.073c0.308,0.049,0.633,0.123,0.977,0.221l-0.284,1.333
				c-0.322-0.091-0.619-0.152-0.892-0.184C64.216,24.549,63.978,24.534,63.774,24.534z M63.911,43.35
				c0.203,0,0.427-0.018,0.672-0.053s0.511-0.088,0.798-0.157l0.284,1.207c-0.428,0.091-0.821,0.163-1.182,0.216
				c-0.361,0.053-0.688,0.078-0.982,0.078c-1.092,0-1.937-0.332-2.536-0.997s-0.898-1.596-0.898-2.793v-4.231
				c0-0.679-0.159-1.188-0.478-1.528c-0.318-0.339-0.8-0.509-1.444-0.509v-1.25c1.134,0,1.988,0.256,2.562,0.767
				c0.574,0.512,0.861,1.274,0.861,2.289v4.264C61.57,42.45,62.35,43.35,63.911,43.35z"/>
		</g>
		<g enable-background="new    ">
			<path fill="#393939" d="M67.375,40v-3.528h1.512V40H67.375z M72.667,40.199c-0.749,0-1.381-0.111-1.895-0.336
				c-0.515-0.224-0.922-0.523-1.224-0.897c-0.301-0.374-0.497-0.793-0.588-1.255h-0.378l0.305-1.239
				c0.133,0.735,0.499,1.334,1.097,1.796c0.598,0.462,1.377,0.693,2.336,0.693c0.819,0,1.455-0.167,1.906-0.499
				c0.452-0.333,0.677-0.817,0.677-1.454c0-0.581-0.224-1.033-0.672-1.354c-0.448-0.322-1.232-0.567-2.352-0.735
				c-1.603-0.252-2.744-0.649-3.423-1.191c-0.679-0.543-1.019-1.259-1.019-2.147c0-0.896,0.312-1.613,0.935-2.153
				c0.623-0.538,1.491-0.808,2.604-0.808c0.735,0,1.342,0.112,1.822,0.336s0.849,0.523,1.107,0.897
				c0.259,0.375,0.427,0.786,0.504,1.234h0.378l-0.305,1.187c-0.126-0.715-0.469-1.298-1.029-1.749s-1.292-0.677-2.195-0.677
				c-0.728,0-1.296,0.153-1.706,0.462s-0.614,0.718-0.614,1.229c0,0.539,0.255,0.961,0.767,1.266
				c0.511,0.304,1.316,0.544,2.415,0.719c1.554,0.245,2.656,0.647,3.307,1.207c0.651,0.561,0.977,1.316,0.977,2.269
				c0,1.001-0.32,1.785-0.961,2.352C74.804,39.916,73.878,40.199,72.667,40.199z M74.484,32.272v-3.455h1.512v3.455H74.484z"/>
			<path fill="#393939" d="M81.991,38.698h1.984V40h-5.743v-1.302h2.247V24.712h-2.247V23.41h3.759V38.698z M88.438,38.698v-5.88
				c0-0.91-0.205-1.624-0.614-2.143c-0.409-0.518-1.052-0.777-1.927-0.777c-0.735,0-1.396,0.188-1.984,0.563
				s-1.056,0.917-1.401,1.627c-0.347,0.711-0.521,1.566-0.521,2.567l-0.356-2.236h0.42c0.14-0.819,0.404-1.514,0.793-2.084
				c0.388-0.571,0.883-1.007,1.485-1.308c0.602-0.301,1.292-0.451,2.068-0.451c1.218,0,2.114,0.35,2.688,1.05
				c0.573,0.7,0.86,1.684,0.86,2.95v6.122h2.143V40h-5.628v-1.302H88.438z"/>
			<path fill="#393939" d="M99.369,40.199c-1.154,0-2.156-0.245-3.003-0.734c-0.847-0.49-1.501-1.168-1.963-2.032
				s-0.693-1.86-0.693-2.987c0-1.141,0.232-2.148,0.698-3.023s1.116-1.561,1.953-2.059c0.836-0.496,1.812-0.745,2.924-0.745
				c1.12,0,2.09,0.245,2.909,0.735c0.818,0.49,1.448,1.168,1.89,2.036s0.661,1.869,0.661,3.003c0,0.134-0.002,0.238-0.005,0.315
				c-0.004,0.077-0.013,0.144-0.026,0.199h-1.491c0.007-0.084,0.013-0.177,0.016-0.278c0.004-0.101,0.006-0.219,0.006-0.352
				c0-0.833-0.159-1.573-0.478-2.221c-0.319-0.647-0.772-1.156-1.36-1.527s-1.295-0.557-2.121-0.557
				c-0.805,0-1.512,0.19-2.121,0.572c-0.608,0.381-1.081,0.906-1.417,1.575c-0.336,0.668-0.504,1.443-0.504,2.325
				c0,0.854,0.166,1.608,0.498,2.263c0.333,0.655,0.808,1.168,1.423,1.538c0.616,0.371,1.348,0.557,2.195,0.557
				c0.882,0,1.646-0.208,2.294-0.624c0.647-0.417,1.129-0.985,1.443-1.707l1.429,0.536c-0.413,0.986-1.073,1.766-1.979,2.336
				C101.639,39.914,100.58,40.199,99.369,40.199z M94.665,34.907v-1.165h9.598l0.44,1.165H94.665z"/>
			<path fill="#393939" d="M106.834,24.586h1.04v2.531c0,0.686-0.2,1.218-0.599,1.596c-0.399,0.377-0.935,0.566-1.606,0.566v-0.966
				c0.363,0,0.648-0.096,0.855-0.289c0.206-0.192,0.31-0.495,0.31-0.908V24.586z M105.679,24.176h2.195v2.132h-2.195V24.176z"/>
			<path fill="#393939" d="M108.997,40v-3.528h1.513V40H108.997z M114.29,40.199c-0.75,0-1.381-0.111-1.896-0.336
				c-0.515-0.224-0.923-0.523-1.224-0.897s-0.497-0.793-0.588-1.255h-0.378l0.305-1.239c0.133,0.735,0.499,1.334,1.097,1.796
				c0.599,0.462,1.378,0.693,2.337,0.693c0.818,0,1.454-0.167,1.905-0.499c0.452-0.333,0.678-0.817,0.678-1.454
				c0-0.581-0.225-1.033-0.672-1.354c-0.448-0.322-1.232-0.567-2.353-0.735c-1.603-0.252-2.744-0.649-3.423-1.191
				c-0.679-0.543-1.019-1.259-1.019-2.147c0-0.896,0.312-1.613,0.935-2.153c0.623-0.538,1.491-0.808,2.604-0.808
				c0.735,0,1.343,0.112,1.822,0.336s0.849,0.523,1.107,0.897c0.259,0.375,0.427,0.786,0.504,1.234h0.378l-0.304,1.187
				c-0.126-0.715-0.47-1.298-1.029-1.749c-0.561-0.451-1.292-0.677-2.194-0.677c-0.729,0-1.297,0.153-1.706,0.462
				c-0.41,0.309-0.614,0.718-0.614,1.229c0,0.539,0.255,0.961,0.766,1.266c0.512,0.304,1.316,0.544,2.415,0.719
				c1.555,0.245,2.657,0.647,3.308,1.207c0.651,0.561,0.977,1.316,0.977,2.269c0,1.001-0.32,1.785-0.961,2.352
				C116.427,39.916,115.501,40.199,114.29,40.199z M116.106,32.272v-3.455h1.512v3.455H116.106z"/>
		</g>
		<g enable-background="new    ">
			<path fill="#40E0D0" d="M121.356,24.429c-0.203,0-0.427,0.018-0.672,0.052c-0.245,0.035-0.511,0.088-0.798,0.158l-0.284-1.208
				c0.427-0.091,0.821-0.163,1.181-0.215c0.361-0.053,0.688-0.079,0.982-0.079c1.092,0,1.937,0.333,2.536,0.997
				c0.599,0.666,0.898,1.596,0.898,2.793v4.231c0,0.679,0.159,1.188,0.478,1.527c0.318,0.34,0.8,0.51,1.444,0.51v1.249
				c-1.134,0-1.988-0.255-2.562-0.767c-0.574-0.511-0.861-1.273-0.861-2.289v-4.263C123.698,25.328,122.917,24.429,121.356,24.429z
				 M121.493,43.244c0.735,0,1.286-0.21,1.654-0.63c0.367-0.42,0.551-1.015,0.551-1.785v-4.157c0-0.98,0.289-1.726,0.866-2.237
				c0.578-0.511,1.43-0.766,2.557-0.766v0.924c-1.281,0-1.921,0.676-1.921,2.026v4.084c0,0.826-0.149,1.533-0.446,2.121
				c-0.298,0.588-0.725,1.038-1.281,1.35c-0.556,0.312-1.216,0.467-1.979,0.467c-0.301,0-0.605-0.024-0.914-0.073
				s-0.634-0.122-0.977-0.221l0.284-1.333c0.322,0.091,0.62,0.152,0.893,0.184S121.29,43.244,121.493,43.244z M127.583,34.593
				h-0.462v-1.396h0.462V34.593z"/>
		</g>
		<g enable-background="new    ">
			<path fill="#393939" d="M138.176,40.199c-1.162,0-2.172-0.245-3.029-0.734c-0.858-0.49-1.522-1.168-1.995-2.032
				s-0.709-1.86-0.709-2.987c0-0.854,0.13-1.636,0.389-2.347c0.259-0.71,0.63-1.326,1.113-1.848
				c0.483-0.521,1.057-0.925,1.722-1.208s1.407-0.425,2.226-0.425c0.791,0,1.451,0.128,1.979,0.384
				c0.528,0.255,0.939,0.605,1.233,1.049c0.294,0.445,0.483,0.954,0.567,1.528h0.367l-0.305,1.585
				c-0.091-0.63-0.298-1.185-0.619-1.664c-0.322-0.479-0.742-0.854-1.26-1.123s-1.117-0.404-1.795-0.404
				c-0.812,0-1.524,0.19-2.137,0.572c-0.613,0.381-1.088,0.906-1.428,1.575c-0.339,0.668-0.509,1.443-0.509,2.325
				c0,0.854,0.173,1.608,0.52,2.263c0.347,0.655,0.833,1.168,1.459,1.538c0.626,0.371,1.367,0.557,2.221,0.557
				c0.882,0,1.642-0.194,2.278-0.582c0.637-0.389,1.103-0.912,1.396-1.57l1.396,0.619c-0.398,0.903-1.037,1.617-1.916,2.143
				C140.463,39.937,139.408,40.199,138.176,40.199z M141.735,33.164v-4.347h1.513v4.347H141.735z"/>
			<path fill="#393939" d="M151.354,40.199c-1.162,0-2.181-0.246-3.056-0.74c-0.875-0.493-1.558-1.171-2.047-2.031
				c-0.49-0.861-0.735-1.855-0.735-2.982c0-1.134,0.245-2.14,0.735-3.019c0.489-0.878,1.172-1.565,2.047-2.063
				c0.875-0.496,1.894-0.745,3.056-0.745s2.181,0.249,3.056,0.745c0.875,0.498,1.558,1.186,2.048,2.063
				c0.489,0.879,0.734,1.885,0.734,3.019c0,1.127-0.245,2.121-0.734,2.982c-0.49,0.86-1.173,1.538-2.048,2.031
				C153.534,39.953,152.516,40.199,151.354,40.199z M151.354,38.803c0.84,0,1.58-0.182,2.221-0.546
				c0.641-0.363,1.141-0.873,1.502-1.527c0.36-0.654,0.54-1.416,0.54-2.284c0-0.875-0.18-1.645-0.54-2.31
				c-0.361-0.665-0.861-1.185-1.502-1.56s-1.381-0.562-2.221-0.562s-1.58,0.187-2.221,0.562s-1.141,0.895-1.502,1.56
				c-0.36,0.665-0.54,1.435-0.54,2.31c0,0.868,0.18,1.63,0.54,2.284c0.361,0.654,0.861,1.164,1.502,1.527
				C149.773,38.621,150.514,38.803,151.354,38.803z"/>
			<path fill="#393939" d="M164.993,28.607c0.924,0,1.752,0.203,2.483,0.609s1.335,0.984,1.811,1.737
				c0.477,0.753,0.791,1.654,0.945,2.704l-0.966,0.725c0-0.861-0.167-1.624-0.499-2.289s-0.807-1.186-1.423-1.56
				s-1.348-0.562-2.194-0.562c-0.833,0-1.558,0.189-2.174,0.566c-0.615,0.379-1.09,0.9-1.423,1.564
				c-0.332,0.666-0.498,1.436-0.498,2.311c0,0.868,0.171,1.635,0.515,2.3c0.343,0.665,0.824,1.188,1.443,1.569
				s1.332,0.572,2.137,0.572c0.84,0,1.566-0.19,2.179-0.572s1.089-0.908,1.428-1.58c0.34-0.672,0.51-1.445,0.51-2.32l0.23,2.383
				h-0.356c-0.126,0.616-0.371,1.186-0.735,1.707s-0.844,0.941-1.438,1.26s-1.309,0.478-2.142,0.478
				c-0.777,0-1.491-0.142-2.143-0.425c-0.65-0.284-1.214-0.687-1.69-1.208c-0.476-0.521-0.845-1.136-1.107-1.843
				s-0.394-1.48-0.394-2.32c0-1.134,0.228-2.139,0.683-3.014c0.454-0.875,1.093-1.559,1.916-2.053
				C162.912,28.854,163.88,28.607,164.993,28.607z M169.203,40v-4.179l0.063-0.819v-1.333l-0.063-1.471v-7.486h-3.014V23.41h4.526
				v15.288h2.142V40H169.203z"/>
			<path fill="#393939" d="M178.484,38.698h2.153V40h-5.933v-1.302h2.268v-8.579h-2.268v-1.302h3.779V38.698z M176.689,24.103h1.932
				v2.005h-1.932V24.103z"/>
			<path fill="#393939" d="M186.045,38.698h1.995V40h-5.807v-1.302h2.3v-8.579h-2.3v-1.302h3.812V38.698z M192.492,38.698V32.85
				c0-0.917-0.207-1.638-0.62-2.163c-0.413-0.524-1.063-0.788-1.953-0.788c-0.721,0-1.375,0.18-1.963,0.536
				s-1.054,0.875-1.396,1.554c-0.344,0.68-0.515,1.502-0.515,2.468l-0.347-2.236h0.42c0.133-0.763,0.389-1.413,0.767-1.948
				s0.862-0.945,1.454-1.229s1.272-0.425,2.042-0.425c1.219,0,2.127,0.352,2.726,1.056c0.599,0.703,0.897,1.695,0.897,2.977v6.048
				h2.152V40h-5.628v-1.302H192.492z"/>
			<path fill="#393939" d="M203.107,44.641c-0.979,0-1.867-0.093-2.661-0.278c-0.795-0.186-1.427-0.478-1.896-0.876
				c-0.469-0.399-0.704-0.928-0.704-1.586s0.236-1.156,0.709-1.496s1.083-0.562,1.832-0.667v-0.179l1.869,0.179
				c-0.776,0-1.386,0.093-1.827,0.278c-0.44,0.186-0.752,0.424-0.934,0.714c-0.183,0.291-0.273,0.59-0.273,0.898
				c0,0.476,0.175,0.847,0.525,1.112c0.35,0.267,0.82,0.455,1.412,0.567c0.591,0.111,1.255,0.168,1.989,0.168
				c1.478,0,2.557-0.198,3.239-0.594s1.024-0.946,1.024-1.653c0-0.994-0.645-1.491-1.933-1.491h-4.284
				c-0.84,0-1.499-0.152-1.979-0.457c-0.479-0.304-0.72-0.743-0.72-1.317c0-0.546,0.217-0.964,0.651-1.255
				c0.434-0.29,1.053-0.467,1.858-0.53v-0.314l1.911,0.546h-1.145c-0.603,0-1.061,0.082-1.376,0.246
				c-0.314,0.165-0.473,0.415-0.473,0.751c0,0.315,0.146,0.541,0.437,0.678c0.29,0.137,0.729,0.204,1.317,0.204h3.759
				c0.721,0,1.335,0.118,1.843,0.353s0.893,0.568,1.155,1.002c0.263,0.435,0.394,0.952,0.394,1.555c0,0.644-0.182,1.227-0.546,1.748
				s-0.965,0.935-1.801,1.239C205.646,44.488,204.521,44.641,203.107,44.641z M202.919,36.409c-0.89,0-1.681-0.161-2.373-0.483
				c-0.693-0.321-1.239-0.773-1.639-1.354c-0.398-0.581-0.598-1.264-0.598-2.047c0-0.784,0.197-1.469,0.593-2.054
				c0.396-0.584,0.938-1.039,1.628-1.364s1.485-0.488,2.389-0.488c0.917,0,1.727,0.171,2.431,0.515
				c0.703,0.343,1.24,0.818,1.611,1.428c0.183,0.279,0.316,0.583,0.404,0.908s0.132,0.678,0.132,1.056
				c0,0.783-0.196,1.466-0.589,2.047c-0.392,0.581-0.933,1.033-1.622,1.354C204.597,36.248,203.808,36.409,202.919,36.409z
				 M202.919,35.17c0.595,0,1.125-0.108,1.591-0.325c0.465-0.217,0.833-0.525,1.103-0.924c0.269-0.399,0.404-0.865,0.404-1.396
				c0-0.532-0.136-1-0.404-1.402c-0.27-0.402-0.638-0.714-1.103-0.935c-0.466-0.221-0.996-0.33-1.591-0.33
				c-0.609,0-1.148,0.109-1.617,0.33s-0.839,0.532-1.107,0.935c-0.27,0.402-0.404,0.87-0.404,1.402c0,0.531,0.135,0.997,0.404,1.396
				c0.269,0.398,0.64,0.707,1.112,0.924S202.316,35.17,202.919,35.17z M207.497,32.524l-0.525-1.229l-0.462-0.757l0.42-0.168
				c-0.021-0.069-0.037-0.141-0.047-0.215c-0.011-0.074-0.017-0.152-0.017-0.236c0-0.294,0.07-0.561,0.21-0.798
				c0.141-0.237,0.344-0.427,0.609-0.567c0.266-0.14,0.592-0.209,0.977-0.209c0.098,0,0.188,0.003,0.268,0.01
				c0.081,0.007,0.159,0.021,0.236,0.042v1.46c-0.133-0.021-0.256-0.037-0.367-0.048c-0.112-0.011-0.225-0.016-0.336-0.016
				c-0.294,0-0.53,0.042-0.709,0.126s-0.307,0.191-0.383,0.32c-0.077,0.129-0.116,0.271-0.116,0.426
				c0,0.146,0.021,0.306,0.063,0.478c0.042,0.171,0.082,0.369,0.12,0.593C207.478,31.961,207.497,32.223,207.497,32.524z"/>
		</g>
		<g enable-background="new    ">
			<path fill="#40E0D0" d="M217.534,30.791h2.194v2.132h-2.194V30.791z M217.534,37.868h2.194V40h-2.194V37.868z"/>
		</g>
		<g enable-background="new    ">
			<path fill="#393939" d="M228.275,44.41v-1.302h2.237V30.119h-2.237v-1.302h3.749v4.001l-0.042,1.196v0.662l0.042,0.944v7.487
				h2.194v1.302H228.275z M236.245,40.21c-0.924,0-1.752-0.203-2.483-0.609c-0.731-0.405-1.335-0.984-1.811-1.737
				c-0.477-0.752-0.791-1.653-0.945-2.704l0.977-0.725c0,0.861,0.164,1.623,0.493,2.284s0.802,1.182,1.418,1.56
				c0.615,0.378,1.348,0.566,2.194,0.566c0.833,0,1.558-0.188,2.174-0.566c0.615-0.378,1.09-0.901,1.422-1.57
				c0.333-0.668,0.499-1.433,0.499-2.294c0-0.875-0.172-1.645-0.515-2.311c-0.343-0.664-0.822-1.188-1.438-1.569
				s-1.33-0.572-2.142-0.572c-0.833,0-1.558,0.19-2.174,0.572s-1.092,0.908-1.428,1.58s-0.504,1.445-0.504,2.32l-0.241-2.383h0.356
				c0.126-0.616,0.371-1.185,0.735-1.706c0.363-0.521,0.845-0.941,1.443-1.26c0.599-0.319,1.311-0.479,2.137-0.479
				c0.784,0,1.502,0.142,2.152,0.426c0.651,0.283,1.213,0.686,1.686,1.207s0.84,1.136,1.103,1.843s0.394,1.484,0.394,2.331
				c0,1.127-0.228,2.128-0.683,3.003s-1.094,1.56-1.916,2.053S237.358,40.21,236.245,40.21z"/>
			<path fill="#393939" d="M247.722,38.698h2.184V40h-5.995v-1.302h2.3v-8.579h-2.3v-1.302h3.812V38.698z M252.016,30.424
				c-0.126-0.035-0.261-0.063-0.403-0.084c-0.144-0.021-0.3-0.031-0.468-0.031c-1.036,0-1.865,0.387-2.488,1.16
				s-0.935,1.847-0.935,3.218l-0.357-2.446h0.431c0.098-0.741,0.301-1.381,0.609-1.916c0.308-0.535,0.709-0.948,1.202-1.238
				c0.493-0.291,1.072-0.437,1.737-0.437c0.126,0,0.24,0.005,0.342,0.016s0.212,0.026,0.33,0.048V30.424z"/>
			<path fill="#393939" d="M259.188,40.199c-1.162,0-2.181-0.246-3.056-0.74c-0.875-0.493-1.558-1.171-2.047-2.031
				c-0.49-0.861-0.735-1.855-0.735-2.982c0-1.134,0.245-2.14,0.735-3.019c0.489-0.878,1.172-1.565,2.047-2.063
				c0.875-0.496,1.894-0.745,3.056-0.745s2.181,0.249,3.056,0.745c0.875,0.498,1.558,1.186,2.048,2.063
				c0.489,0.879,0.734,1.885,0.734,3.019c0,1.127-0.245,2.121-0.734,2.982c-0.49,0.86-1.173,1.538-2.048,2.031
				C261.368,39.953,260.35,40.199,259.188,40.199z M259.188,38.803c0.84,0,1.58-0.182,2.221-0.546
				c0.641-0.363,1.141-0.873,1.502-1.527c0.36-0.654,0.54-1.416,0.54-2.284c0-0.875-0.18-1.645-0.54-2.31
				c-0.361-0.665-0.861-1.185-1.502-1.56s-1.381-0.562-2.221-0.562s-1.58,0.187-2.221,0.562s-1.141,0.895-1.502,1.56
				c-0.36,0.665-0.54,1.435-0.54,2.31c0,0.868,0.18,1.63,0.54,2.284c0.361,0.654,0.861,1.164,1.502,1.527
				C257.607,38.621,258.348,38.803,259.188,38.803z"/>
			<path fill="#393939" d="M266.863,28.817h4.011V41.46c0,0.993-0.254,1.767-0.762,2.32c-0.507,0.553-1.279,0.829-2.314,0.829
				c-0.868,0-1.532-0.197-1.99-0.593s-0.761-0.958-0.908-1.686l1.354-0.399c0.112,0.435,0.29,0.758,0.535,0.972
				c0.245,0.213,0.585,0.32,1.019,0.32c0.497,0,0.881-0.146,1.15-0.436c0.27-0.291,0.404-0.733,0.404-1.328V30.119h-2.499V28.817z
				 M269.078,24.103h1.933v2.005h-1.933V24.103z"/>
			<path fill="#393939" d="M279.777,40.199c-1.154,0-2.156-0.245-3.003-0.734c-0.847-0.49-1.501-1.168-1.963-2.032
				s-0.693-1.86-0.693-2.987c0-1.141,0.232-2.148,0.698-3.023s1.116-1.561,1.953-2.059c0.836-0.496,1.812-0.745,2.924-0.745
				c1.12,0,2.09,0.245,2.909,0.735c0.818,0.49,1.448,1.168,1.89,2.036s0.661,1.869,0.661,3.003c0,0.134-0.002,0.238-0.005,0.315
				c-0.004,0.077-0.013,0.144-0.026,0.199h-1.491c0.007-0.084,0.013-0.177,0.016-0.278c0.004-0.101,0.006-0.219,0.006-0.352
				c0-0.833-0.159-1.573-0.478-2.221c-0.319-0.647-0.772-1.156-1.36-1.527s-1.295-0.557-2.121-0.557
				c-0.805,0-1.512,0.19-2.121,0.572c-0.608,0.381-1.081,0.906-1.417,1.575c-0.336,0.668-0.504,1.443-0.504,2.325
				c0,0.854,0.166,1.608,0.498,2.263c0.333,0.655,0.808,1.168,1.423,1.538c0.616,0.371,1.348,0.557,2.195,0.557
				c0.882,0,1.646-0.208,2.294-0.624c0.647-0.417,1.129-0.985,1.443-1.707l1.429,0.536c-0.413,0.986-1.073,1.766-1.979,2.336
				C282.047,39.914,280.988,40.199,279.777,40.199z M275.073,34.907v-1.165h9.598l0.44,1.165H275.073z"/>
			<path fill="#393939" d="M293.154,40.199c-1.162,0-2.172-0.245-3.029-0.734c-0.857-0.49-1.522-1.168-1.995-2.032
				c-0.472-0.864-0.708-1.86-0.708-2.987c0-0.854,0.129-1.636,0.389-2.347c0.259-0.71,0.63-1.326,1.112-1.848
				c0.483-0.521,1.058-0.925,1.723-1.208c0.664-0.283,1.406-0.425,2.226-0.425c0.791,0,1.45,0.128,1.979,0.384
				c0.528,0.255,0.939,0.605,1.233,1.049c0.294,0.445,0.483,0.954,0.567,1.528h0.367l-0.305,1.585
				c-0.091-0.63-0.298-1.185-0.619-1.664c-0.322-0.479-0.742-0.854-1.26-1.123c-0.519-0.27-1.117-0.404-1.796-0.404
				c-0.813,0-1.524,0.19-2.137,0.572c-0.612,0.381-1.089,0.906-1.428,1.575c-0.34,0.668-0.51,1.443-0.51,2.325
				c0,0.854,0.174,1.608,0.52,2.263c0.347,0.655,0.833,1.168,1.46,1.538c0.626,0.371,1.366,0.557,2.221,0.557
				c0.882,0,1.642-0.194,2.278-0.582c0.637-0.389,1.103-0.912,1.396-1.57l1.396,0.619c-0.398,0.903-1.037,1.617-1.916,2.143
				C295.441,39.937,294.387,40.199,293.154,40.199z M296.714,33.164v-4.347h1.513v4.347H296.714z"/>
			<path fill="#393939" d="M303.36,37.039c0,0.588,0.112,1.03,0.336,1.328c0.225,0.298,0.567,0.446,1.029,0.446
				c0.455,0,0.798-0.152,1.029-0.457c0.23-0.304,0.347-0.743,0.347-1.317v-1.04h1.364v1.029c0,0.672-0.1,1.244-0.299,1.717
				s-0.503,0.833-0.908,1.082c-0.406,0.248-0.928,0.372-1.564,0.372c-0.651,0-1.187-0.128-1.606-0.383
				c-0.42-0.256-0.731-0.618-0.935-1.087s-0.305-1.032-0.305-1.69l0.011-6.92h-1.995v-1.302h1.995v-2.835h1.512v2.835h3.948
				l-0.011,1.302h-3.938L303.36,37.039z"/>
			<path fill="#393939" d="M309.607,40v-3.528h1.513V40H309.607z M314.9,40.199c-0.75,0-1.381-0.111-1.896-0.336
				c-0.515-0.224-0.923-0.523-1.224-0.897s-0.497-0.793-0.588-1.255h-0.378l0.305-1.239c0.133,0.735,0.499,1.334,1.097,1.796
				c0.599,0.462,1.378,0.693,2.337,0.693c0.818,0,1.454-0.167,1.905-0.499c0.452-0.333,0.678-0.817,0.678-1.454
				c0-0.581-0.225-1.033-0.672-1.354c-0.448-0.322-1.232-0.567-2.353-0.735c-1.603-0.252-2.744-0.649-3.423-1.191
				c-0.679-0.543-1.019-1.259-1.019-2.147c0-0.896,0.312-1.613,0.935-2.153c0.623-0.538,1.491-0.808,2.604-0.808
				c0.735,0,1.343,0.112,1.822,0.336s0.849,0.523,1.107,0.897c0.259,0.375,0.427,0.786,0.504,1.234h0.378l-0.304,1.187
				c-0.126-0.715-0.47-1.298-1.029-1.749c-0.561-0.451-1.292-0.677-2.194-0.677c-0.729,0-1.297,0.153-1.706,0.462
				c-0.41,0.309-0.614,0.718-0.614,1.229c0,0.539,0.255,0.961,0.766,1.266c0.512,0.304,1.316,0.544,2.415,0.719
				c1.555,0.245,2.657,0.647,3.308,1.207c0.651,0.561,0.977,1.316,0.977,2.269c0,1.001-0.32,1.785-0.961,2.352
				C317.037,39.916,316.111,40.199,314.9,40.199z M316.717,32.272v-3.455h1.512v3.455H316.717z"/>
		</g>
		<g id="Logo" transform="translate(-116.999 -54.999)">
			<path id="Steam" fill="#393939" d="M117.143,110.89c-0.191-0.189-0.191-0.499-0.001-0.689c0,0,0-0.001,0.001-0.001L130.9,96.442
				c0.187-0.193,0.496-0.199,0.69-0.012c0.194,0.188,0.2,0.496,0.013,0.689c-0.004,0.005-0.009,0.01-0.014,0.014l-13.755,13.756
				C117.644,111.081,117.335,111.081,117.143,110.89C117.144,110.891,117.144,110.89,117.143,110.89z"/>
			<path id="Steam-2" fill="#393939" d="M123.184,108.3c-0.19-0.19-0.19-0.499,0-0.689l7.714-7.713
				c0.187-0.193,0.496-0.199,0.69-0.012c0.194,0.188,0.2,0.496,0.013,0.689c-0.004,0.005-0.009,0.01-0.014,0.014l-7.712,7.71
				C123.685,108.49,123.376,108.491,123.184,108.3C123.185,108.301,123.185,108.3,123.184,108.3z"/>
			<path id="Steam-3" fill="#393939" d="M128.923,106.573c-0.19-0.188-0.192-0.496-0.004-0.686c0.001-0.002,0.003-0.004,0.004-0.005
				l5.984-5.985c0.187-0.194,0.496-0.2,0.69-0.014c0.194,0.188,0.2,0.496,0.012,0.691c-0.004,0.004-0.009,0.008-0.013,0.013
				l-5.984,5.984c-0.188,0.19-0.495,0.192-0.686,0.004C128.925,106.575,128.924,106.574,128.923,106.573z"/>
			<path id="Steam-4" fill="#393939" d="M121.458,99.121c-0.189-0.191-0.189-0.499,0-0.69l5.123-5.123
				c0.183-0.199,0.493-0.211,0.691-0.028c0.199,0.183,0.211,0.493,0.028,0.69c-0.009,0.01-0.018,0.02-0.028,0.028l-5.123,5.122
				C121.958,99.31,121.649,99.31,121.458,99.121z"/>
			<path id="Wing" fill="#393939" d="M121.458,102.709c-0.189-0.191-0.189-0.499,0-0.69l8.577-8.576
				c0.198-0.183,0.508-0.17,0.691,0.028c0.173,0.188,0.173,0.476,0,0.663l-8.577,8.575
				C121.958,102.899,121.649,102.899,121.458,102.709z"/>
			<path id="Path_20" fill="#393939" d="M164.867,65.842c-0.073-0.673-0.188-1.341-0.345-2l-0.086-0.276l-0.277-0.086
				c-0.659-0.158-1.327-0.273-2-0.345c-1.693-0.177-3.4-0.177-5.093,0c-2.39,0.242-4.727,0.859-6.924,1.83
				c-2.8,1.242-5.342,2.999-7.493,5.18c-1.423,1.414-2.772,2.901-4.042,4.455c-0.4,0.494-0.782,0.985-1.146,1.473l-13.91,6.159
				l8.178,4.71c-0.109,0.313-0.216,0.63-0.322,0.953l-0.086,0.311l3.894,3.895l-1.542,1.541c-0.2,0.199-0.2,0.521-0.001,0.722
				c0,0.001,0.001,0.001,0.001,0.002c0.201,0.198,0.524,0.198,0.725,0l1.541-1.541l3.859,3.858l0.311-0.086
				c0.323-0.104,0.639-0.213,0.952-0.322l4.711,8.18l6.159-13.911c0.489-0.365,0.979-0.747,1.472-1.146
				c1.554-1.27,3.041-2.617,4.454-4.041c2.181-2.151,3.938-4.693,5.18-7.494c0.971-2.197,1.588-4.534,1.83-6.924
				C165.044,69.245,165.043,67.537,164.867,65.842z M125.807,82.349l10.169-4.489l-4.316,7.874L125.807,82.349z M145.645,102.205
				l-3.367-5.871l7.873-4.315L145.645,102.205z M163.845,70.866c-0.583,5.225-2.957,10.087-6.717,13.761
				c-5.542,5.542-10.515,8.72-17.041,10.878l-3.422-3.415l6.723-6.724c0.203-0.197,0.208-0.521,0.011-0.725
				s-0.521-0.207-0.724-0.011c-0.003,0.003-0.007,0.007-0.01,0.011l-6.725,6.726l-3.467-3.459c2.175-6.526,5.353-11.5,10.895-17.042
				c3.674-3.761,8.535-6.134,13.76-6.717c1.613-0.176,3.24-0.176,4.852,0c0.742,0.086,1.295,0.19,1.606,0.259
				c0.069,0.311,0.172,0.863,0.259,1.588c0.177,1.619,0.178,3.252,0.003,4.871L163.845,70.866z"/>
			<path id="Hatch" fill="#40E0D0" d="M145.923,82.077c-3.037-3.046-3.029-7.977,0.017-11.014c3.046-3.037,7.977-3.029,11.014,0.017
				c3.037,3.046,3.03,7.977-0.016,11.014c-2.214,2.207-5.533,2.876-8.429,1.701C147.54,83.401,146.66,82.817,145.923,82.077z
				 M156.281,71.717c-2.67-2.669-6.998-2.669-9.668,0c-2.669,2.67-2.669,6.998,0,9.667c2.67,2.669,6.998,2.669,9.667,0
				C158.946,78.713,158.946,74.388,156.281,71.717L156.281,71.717z"/>
			<g id="Group_1" transform="translate(141.794 67.767)">
				
					<rect id="Rectangle_1" x="2.864" y="2.536" transform="matrix(-0.7071 0.7071 -0.7071 -0.7071 22.256 9.2179)" fill="none" width="12.71" height="13.365"/>
				<path id="Path_21" fill="#393939" d="M18.016,9.124c-0.129-0.315-0.435-0.521-0.775-0.523l-2.389-0.014
					c-0.618-2.469-2.545-4.396-5.014-5.013L9.825,1.186C9.823,0.72,9.443,0.345,8.978,0.347c-0.222,0.001-0.435,0.09-0.592,0.247
					L4.033,4.947c-2.213,2.219-2.213,5.811,0,8.029l1.415,1.415c2.219,2.214,5.811,2.214,8.03,0l4.353-4.353
					C18.07,9.798,18.143,9.438,18.016,9.124z M15.999,10.367c-0.002-0.01-0.006-0.02-0.012-0.028
					c-0.092-0.111-0.429,0.2-0.992,0.269c-0.821,0.1-1.464-0.4-1.569-0.241c-0.054,0.083,0.089,0.265,0.126,0.312
					c0.425,0.448,1.061,0.63,1.659,0.475l-0.381,0.381c-0.708,0-1.243-0.4-1.338-0.254c-0.054,0.084,0.088,0.265,0.125,0.312
					c0.186,0.217,0.432,0.373,0.708,0.447l-1.6,1.6c-1.802,1.797-4.72,1.797-6.522,0l-1.417-1.416c-1.797-1.803-1.797-4.72,0-6.522
					l1.551-1.551c0.042,0.187,0.128,0.36,0.251,0.506c0.18,0.206,0.468,0.358,0.558,0.286c0.112-0.09-0.2-0.432-0.259-0.995
					c-0.011-0.114-0.011-0.228,0-0.342l0.5-0.5C7.152,3.628,7.212,4.235,7.545,4.7c0.18,0.206,0.468,0.358,0.558,0.286
					c0.113-0.09-0.2-0.432-0.259-1c-0.09-0.823,0.418-1.46,0.259-1.566C8.095,2.415,8.086,2.412,8.077,2.411l0.689-0.689l0.007,1.1
					C8.731,2.849,8.696,2.876,8.679,2.889C8.072,3.445,7.967,4.362,8.433,5.041c0.182,0.206,0.469,0.358,0.559,0.286
					c0.113-0.09-0.2-0.432-0.259-1c-0.022-0.224-0.007-0.45,0.044-0.67v0.339c0.003,0.257,0.188,0.477,0.441,0.525
					c0.612,0.11,1.201,0.32,1.744,0.624l-0.453,0.452c-0.216,0.2-0.229,0.537-0.029,0.753s0.538,0.229,0.753,0.028
					c0.005-0.004,0.01-0.009,0.014-0.014l0.014-0.005l0.6-0.6c0.293,0.239,0.561,0.507,0.8,0.8l-0.6,0.6
					c-0.216,0.2-0.229,0.538-0.028,0.753s0.537,0.229,0.753,0.029c0.005-0.005,0.01-0.009,0.015-0.014l0.014-0.014l0.452-0.452
					c0.304,0.542,0.515,1.13,0.624,1.742c0.046,0.253,0.267,0.438,0.524,0.44h0.393c-0.064,0.015-0.129,0.026-0.194,0.034
					c-0.823,0.1-1.466-0.4-1.57-0.241c-0.053,0.083,0.09,0.265,0.127,0.312c0.562,0.602,1.482,0.696,2.154,0.221
					c0.101-0.091,0.185-0.2,0.247-0.321l1.126,0.008L15.999,10.367z"/>
				<path id="Glasses" fill="#40E0D0" d="M13.005,12.04c0.802-0.66,0.917-1.844,0.258-2.646c-0.66-0.802-1.844-0.917-2.646-0.257
					c-0.802,0.659-0.917,1.844-0.258,2.646c0.039,0.047,0.08,0.092,0.123,0.136C11.146,12.645,12.273,12.7,13.005,12.04z
					 M9.037,8.071c0.802-0.66,0.917-1.845,0.257-2.647S7.449,4.506,6.646,5.166S5.729,7.012,6.39,7.814
					c0.039,0.047,0.08,0.092,0.123,0.135C7.177,8.677,8.305,8.732,9.037,8.071z M13.666,12.701c-0.183,0.166-0.464,0.152-0.63-0.031
					l0,0c-0.01-0.012-0.019-0.025-0.027-0.038c-0.924,0.535-2.095,0.364-2.827-0.413c-0.658-0.63-0.889-1.586-0.593-2.448
					c0.175-0.468,0.626-0.842,0.262-1.207C9.502,8.216,9.163,8.659,8.646,8.848c-0.858,0.288-1.806,0.055-2.432-0.6
					C5.436,7.516,5.265,6.344,5.8,5.42L5.761,5.393c-0.185-0.147-0.215-0.416-0.068-0.6s0.416-0.215,0.6-0.068
					c0.025,0.02,0.048,0.043,0.068,0.068l0.034,0.033C6.837,4.575,7.35,4.475,7.854,4.542c0.517,0.081,0.994,0.327,1.361,0.7
					c0.65,0.763,0.825,1.822,0.454,2.753c0.183,0.039,0.351,0.13,0.482,0.263c0.136,0.138,0.229,0.311,0.27,0.5
					c1.184-0.59,2.622-0.109,3.212,1.075c0.346,0.693,0.335,1.511-0.03,2.195l0.034,0.034c0.181,0.167,0.194,0.447,0.029,0.63
					V12.701z"/>
				<path id="Mouth" fill="#393939" d="M9.506,11.834c-0.138-0.214-0.422-0.276-0.637-0.139c-0.309,0.198-0.721,0.108-0.919-0.201
					c-0.077-0.121-0.113-0.264-0.103-0.407c0-0.008,0-0.015,0-0.023c0.033,0.006,0.066,0.01,0.1,0.011H8.6
					c0.11-0.001,0.217-0.032,0.31-0.091l0,0c0.173-0.107,0.278-0.296,0.279-0.5l-0.252-0.4c0.001-0.327-0.263-0.593-0.59-0.594
					c-0.001,0-0.001,0-0.002,0l0,0l-0.4-0.252c-0.327,0-0.593,0.264-0.593,0.591c0,0,0,0,0,0.001v0.653
					c0,0.038,0.004,0.077,0.011,0.114H7.348c-0.368,0.025-0.687-0.251-0.712-0.619c-0.01-0.143,0.026-0.285,0.103-0.405
					c0.155-0.201,0.119-0.491-0.083-0.646C6.455,8.771,6.165,8.808,6.01,9.009C6.001,9.019,5.994,9.03,5.987,9.041
					C5.979,9.052,5.972,9.063,5.966,9.075c-0.396,1.481,0.482,3.003,1.963,3.4c0.471,0.126,0.967,0.126,1.438,0
					c0.215-0.135,0.28-0.418,0.145-0.633C9.51,11.839,9.508,11.837,9.506,11.834z"/>
				<path id="Right_eye" fill="#393939" d="M12.158,11.192c-0.366,0.306-0.911,0.258-1.217-0.108
					c-0.306-0.366-0.258-0.911,0.108-1.217c0.343-0.287,0.848-0.265,1.165,0.051c0.336,0.366,0.312,0.935-0.054,1.271
					C12.16,11.19,12.159,11.191,12.158,11.192z"/>
				<path id="Left_eye" fill="#393939" d="M8.514,7.548C8.148,7.854,7.603,7.806,7.297,7.44C6.991,7.074,7.039,6.529,7.405,6.223
					C7.748,5.936,8.253,5.958,8.57,6.274C8.907,6.64,8.883,7.21,8.517,7.545C8.516,7.546,8.515,7.547,8.514,7.548z"/>
			</g>
		</g>
	</g>
</g>
</svg>
