<svg xmlns="http://www.w3.org/2000/svg" 
     xmlns:xlink="http://www.w3.org/1999/xlink" 
     width="320" height="56" viewBox="0 0 320 56"
     aria-labelledby="title" role="img">
  <title>She' Coding Projects</title>     
  <defs>
    <clipPath id="clip-custom_1">
      <rect width="320" height="56"/>
    </clipPath>
  </defs>
  <g id="custom_1" data-name="custom – 1" clip-path="url(#clip-custom_1)">
    <rect width="320" height="56" fill="#fff"/>
    <text id="_she_s_coding_:_projects" data-name="{she’s} coding : projects" transform="translate(188 40)" fill="#40e0d0" font-size="21" font-family="HeptaSlab-Regular, Hepta Slab"><tspan x="-131.796" y="0">{</tspan><tspan y="0" fill="#393939">she’s</tspan><tspan y="0">}</tspan><tspan y="0" fill="#393939" letter-spacing="-0.2em"> </tspan><tspan y="0" fill="#393939">coding </tspan><tspan y="0" fill="rgba(57,57,57,0.5)">:</tspan><tspan y="0" xml:space="preserve" fill="#393939"> projects</tspan></text>
    <g id="Logo" transform="translate(-116.999 -54.999)">
      <path id="Steam" d="M117.143,273.62a.488.488,0,0,1,0-.691L130.9,259.173a.488.488,0,1,1,.689.691L117.834,273.62A.488.488,0,0,1,117.143,273.62Z" transform="translate(0 -162.73)" fill="#393939"/>
      <path id="Steam-2" data-name="Steam" d="M154.911,289.159a.489.489,0,0,1,0-.69l7.714-7.712a.488.488,0,1,1,.689.691l-7.712,7.71A.488.488,0,0,1,154.911,289.159Z" transform="translate(-31.727 -180.859)" fill="#393939"/>
      <path id="Steam-3" data-name="Steam" d="M187.291,287.431a.485.485,0,0,1,0-.69l5.984-5.986a.488.488,0,1,1,.689.691l-5.984,5.984A.485.485,0,0,1,187.291,287.431Z" transform="translate(-58.368 -180.858)" fill="#393939"/>
      <path id="Steam-4" data-name="Steam" d="M144.121,248.8a.491.491,0,0,1,0-.691l5.123-5.123a.489.489,0,1,1,.691.691l-5.123,5.122A.491.491,0,0,1,144.121,248.8Z" transform="translate(-22.663 -149.679)" fill="#393939"/>
      <path id="Wing" d="M144.121,252.256a.491.491,0,0,1,0-.691l8.577-8.575a.489.489,0,0,1,.691.691l-8.577,8.575A.489.489,0,0,1,144.121,252.256Z" transform="translate(-22.663 -149.547)" fill="#393939"/>
      <path id="Path_20" data-name="Path 20" d="M199.26,65.842a15.974,15.974,0,0,0-.345-2l-.086-.276-.277-.086a15.872,15.872,0,0,0-2-.345,24.556,24.556,0,0,0-5.093,0,22.816,22.816,0,0,0-6.924,1.83,24.442,24.442,0,0,0-7.493,5.18A57.9,57.9,0,0,0,173,74.6q-.6.741-1.146,1.473l-13.91,6.159,8.178,4.711c-.109.313-.216.629-.322.952l-.086.311,3.894,3.894-1.542,1.542a.51.51,0,0,0,0,.723.515.515,0,0,0,.725,0l1.541-1.541,3.859,3.859.311-.086c.323-.105.639-.213.952-.322l4.711,8.179,6.159-13.911q.733-.548,1.472-1.146a57.881,57.881,0,0,0,4.454-4.04,24.441,24.441,0,0,0,5.18-7.494,22.8,22.8,0,0,0,1.83-6.924A24.559,24.559,0,0,0,199.26,65.842ZM160.2,82.349l10.169-4.489-4.316,7.873Zm19.838,19.856-3.367-5.871,7.873-4.316Zm18.2-31.339a22.77,22.77,0,0,1-6.717,13.761c-5.542,5.542-10.515,8.72-17.041,10.878l-3.422-3.415,6.723-6.724a.512.512,0,1,0-.723-.725l-6.725,6.726-3.467-3.459c2.175-6.526,5.353-11.5,10.895-17.042a22.769,22.769,0,0,1,13.76-6.717,22.325,22.325,0,0,1,4.852,0c.742.086,1.295.19,1.606.259.069.311.172.863.259,1.588A22.491,22.491,0,0,1,198.241,70.867Z" transform="translate(-34.393 0)" fill="#393939"/>
      <path id="Hatch" d="M273.652,112.208a7.788,7.788,0,1,1,2.585,1.717A7.76,7.76,0,0,1,273.652,112.208Zm10.358-10.36a6.836,6.836,0,1,0,0,9.668A6.844,6.844,0,0,0,284.009,101.848Z" transform="translate(-127.729 -30.131)" fill="#40e0d0"/>
      <g id="Group_1" data-name="Group 1" transform="translate(141.794 67.767)">
        <rect id="Rectangle_1" data-name="Rectangle 1" width="12.71" height="13.365" transform="translate(0 8.987) rotate(-45.002)" fill="none"/>
        <path id="Path_21" data-name="Path 21" d="M290.354,103.764a.841.841,0,0,0-.775-.523l-2.389-.014a6.891,6.891,0,0,0-5.014-5.013l-.013-2.388a.843.843,0,0,0-1.439-.592l-4.353,4.353a5.684,5.684,0,0,0,0,8.029l1.415,1.415a5.685,5.685,0,0,0,8.03,0l4.353-4.353A.845.845,0,0,0,290.354,103.764Zm-2.017,1.243a.079.079,0,0,0-.012-.028c-.092-.111-.429.2-.992.269-.821.1-1.464-.4-1.569-.241-.054.083.089.265.126.312a1.7,1.7,0,0,0,1.659.475l-.381.381c-.708,0-1.243-.4-1.338-.254-.054.084.088.265.125.312a1.414,1.414,0,0,0,.708.447l-1.6,1.6a4.618,4.618,0,0,1-6.522,0l-1.417-1.416a4.619,4.619,0,0,1,0-6.522l1.551-1.551a1.178,1.178,0,0,0,.251.506c.18.206.468.358.558.286.112-.09-.2-.432-.259-.995a1.866,1.866,0,0,1,0-.342l.5-.5a1.606,1.606,0,0,0,.158,1.594c.18.206.468.358.558.286.113-.09-.2-.432-.259-1-.09-.823.418-1.46.259-1.566a.07.07,0,0,0-.026-.009l.689-.689.007,1.1c-.042.027-.077.054-.094.067a1.651,1.651,0,0,0-.246,2.152c.182.206.469.358.559.286.113-.09-.2-.432-.259-1a2.04,2.04,0,0,1,.044-.67l0,.339a.542.542,0,0,0,.441.525,5.6,5.6,0,0,1,1.744.624l-.453.452a.533.533,0,1,0,.739.768L283.6,101l.6-.6a5.615,5.615,0,0,1,.8.8l-.6.6a.533.533,0,1,0,.739.768l.014-.014.452-.452a5.567,5.567,0,0,1,.624,1.742.537.537,0,0,0,.524.44l.393,0a1.836,1.836,0,0,1-.194.034c-.823.1-1.466-.4-1.57-.241-.053.083.09.265.127.312a1.647,1.647,0,0,0,2.154.221,1.124,1.124,0,0,0,.247-.321l1.126.008Z" transform="translate(-272.338 -94.64)" fill="#393939"/>
        <path id="Glasses" d="M301.642,128.575a1.88,1.88,0,1,0-2.523-.122,1.792,1.792,0,0,0,2.523.122Zm-3.968-3.969a1.881,1.881,0,1,0-2.525-.122,1.793,1.793,0,0,0,2.525.122Zm4.629,4.63a.446.446,0,0,1-.63-.031.427.427,0,0,1-.027-.038,2.3,2.3,0,0,1-2.827-.413,2.338,2.338,0,0,1-.593-2.448c.175-.468.626-.842.262-1.207-.349-.348-.688.095-1.205.284a2.335,2.335,0,0,1-2.432-.6,2.3,2.3,0,0,1-.414-2.828l-.039-.027a.427.427,0,1,1,.6-.6l.034.033a2.335,2.335,0,0,1,1.459-.284,2.44,2.44,0,0,1,1.361.7,2.7,2.7,0,0,1,.454,2.753.964.964,0,0,1,.482.263,1.015,1.015,0,0,1,.27.5,2.395,2.395,0,0,1,3.182,3.27l.034.034a.448.448,0,0,1,.029.63Z" transform="translate(-288.637 -116.535)" fill="#40e0d0"/>
        <path id="Mouth" d="M299.4,151.071a.462.462,0,0,0-.637-.139.665.665,0,0,1-1.022-.608c0-.008,0-.015,0-.023a.607.607,0,0,0,.1.011h.653a.594.594,0,0,0,.31-.091l0,0a.592.592,0,0,0,.279-.5l-.252-.4a.592.592,0,0,0-.592-.594h0l-.4-.252a.592.592,0,0,0-.593.592v.653a.606.606,0,0,0,.011.114h-.015a.667.667,0,0,1-.609-1.024.461.461,0,1,0-.752-.532.287.287,0,0,0-.021.034,2.776,2.776,0,0,0,3.4,3.4A.459.459,0,0,0,299.4,151.071Z" transform="translate(-289.894 -139.237)" fill="#393939"/>
        <path id="Right_eye" data-name="Right eye" d="M327.924,154.821a.864.864,0,1,1,.056-1.274.9.9,0,0,1-.056,1.274Z" transform="translate(-315.766 -143.629)" fill="#393939"/>
        <path id="Left_eye" data-name="Left eye" d="M305.15,132.046a.864.864,0,1,1,.056-1.274.9.9,0,0,1-.056,1.274Z" transform="translate(-296.636 -124.498)" fill="#393939"/>
      </g>
    </g>
  </g>
</svg>
